<svg width="46" height="46" viewBox="0 0 46 46" fill="none" xmlns="http://www.w3.org/2000/svg">
<g id="btn-BURGER / on-white / ghost_color">
<rect x="0.5" y="0.5" width="45" height="45" rx="11.5" fill="#F4F5F8"/>
<g id="Group">
<path id="Union" d="M27.2394 26.8851L27.2391 26.8855C26.7433 27.377 26.251 27.8652 25.7675 28.361L25.4095 28.012M27.2394 26.8851L16.2037 16.2607C16.2718 16.1927 16.3399 16.1251 16.4082 16.0579L16.4089 16.0572C16.6578 15.8115 16.9034 15.7205 17.116 15.7202C17.3289 15.7199 17.5757 15.8104 17.8268 16.0549C18.0929 16.3156 18.3558 16.5803 18.6215 16.8478L18.6219 16.8482C18.754 16.9812 18.8868 17.115 19.0202 17.2484C19.2143 17.4446 19.4082 17.6385 19.6011 17.8313L19.6018 17.832C19.7955 18.0257 19.988 18.2183 20.1805 18.4128L20.1813 18.4136C20.4546 18.6885 20.5481 18.9401 20.5484 19.1475C20.5487 19.3548 20.4561 19.6047 20.1855 19.8769L20.1849 19.8775L19.9757 20.0886L19.9756 20.0887C19.5586 20.5099 19.1473 20.9251 18.7276 21.3307L18.7276 21.3306L18.7216 21.3366C18.6179 21.4402 18.5074 21.5868 18.4719 21.788C18.437 21.9857 18.4891 22.1561 18.5394 22.2755C18.893 23.1168 19.394 23.853 19.9401 24.5238L19.9403 24.524C21.0303 25.8609 22.2723 27.0631 23.7657 28.0024L23.768 28.0038C23.9751 28.1326 24.192 28.2392 24.384 28.3336L24.3936 28.3383L24.3937 28.3383C24.5244 28.4026 24.6443 28.4616 24.7596 28.5244C24.9018 28.6039 25.0933 28.6698 25.3146 28.6256C25.5247 28.5836 25.6728 28.4587 25.7685 28.36L25.4095 28.012M27.2394 26.8851C27.4887 26.6375 27.7337 26.5466 27.9447 26.5466C28.1556 26.5466 28.4017 26.6374 28.6531 26.8851C28.6534 26.8855 28.6538 26.8858 28.6542 26.8862M27.2394 26.8851L28.6542 26.8862M25.4095 28.012C25.2763 28.1493 25.164 28.1785 25.0017 28.0869L26.887 26.5304C26.3917 27.0215 25.8965 27.5126 25.4095 28.012ZM28.6542 26.8862L28.6634 26.8954L28.6643 26.8964L28.6686 26.9007C29.4584 27.6862 30.247 28.4707 31.0314 29.2592L28.6542 26.8862ZM15.8208 16.646L15.8207 16.6461L15.8187 16.6481C15.5257 16.9441 15.2268 17.246 14.9164 17.5412L14.9157 17.5419C14.5436 17.8942 14.3542 18.3198 14.3129 18.8447C14.242 19.7752 14.4681 20.6733 14.8152 21.5977L14.8159 21.5994C15.524 23.5065 16.6056 25.2095 17.9301 26.7827L17.9303 26.7829C19.7135 28.9031 21.8388 30.5777 24.3252 31.7864L15.8208 16.646ZM15.8208 16.646L15.8351 16.6315M15.8208 16.646L15.8351 16.6315M27.7675 32.7941L27.7682 32.7941C28.5452 32.8377 29.1564 32.6461 29.652 32.0906L29.6525 32.0901C29.9431 31.7653 30.2559 31.4613 30.5541 31.1716L30.5603 31.1655L30.5631 31.1627C30.72 31.0103 30.8731 30.8616 31.022 30.7112L27.7675 32.7941ZM27.7675 32.7941C26.567 32.7284 25.4453 32.3302 24.3254 31.7865L27.7675 32.7941ZM15.8351 16.6315C15.9584 16.507 16.0806 16.3836 16.2036 16.2607L15.8351 16.6315ZM31.3798 29.9795C31.3807 29.7672 31.2891 29.5186 31.0316 29.2594L31.3798 29.9795ZM31.3798 29.9795C31.3789 30.1926 31.2844 30.4454 31.0225 30.7107L31.3798 29.9795Z" stroke="#6E7284"/>
<path id="Vector" d="M29.2999 23.3C28.7999 20.3 26.7999 18.3 23.7999 17.8" stroke="#6E7284" stroke-linecap="round"/>
<path id="Vector 2" d="M33.2999 23.3C32.7999 18.3 28.7999 14.3 23.7999 13.8" stroke="#6E7284" stroke-linecap="round"/>
</g>
<rect x="0.5" y="0.5" width="45" height="45" rx="11.5" stroke="#DEDFE7"/>
</g>
</svg>
